<svg width="15" height="18" viewBox="0 0 15 18" fill="none" xmlns="http://www.w3.org/2000/svg">
<path d="M9.35573 1.12599L7.74906 7.80417L13.5704 7.81938L5.646 16.8723L7.25338 9.52553L1.43205 9.5092L9.35573 1.12599ZM9.35644 0C9.31798 0 9.27952 0.00112655 9.24178 0.00337965C8.99038 0.0191513 8.82373 0.086181 8.62646 0.19095C8.51678 0.248404 8.41637 0.319377 8.32806 0.401051C8.30171 0.425272 8.27749 0.45062 8.2547 0.47653L0.273335 8.83102C-0.0414472 9.17293 -0.0884511 9.62354 0.153689 10.0004C0.395829 10.3772 0.884382 10.616 1.42065 10.6194L5.53205 10.6431L4.23945 16.6667C4.11695 17.1844 4.46592 17.7003 5.07982 17.9082C5.26285 17.9701 5.45513 18 5.64457 18C6.09253 18 6.46002 17.8344 6.73634 17.5353L14.727 8.48235C15.0417 8.14044 15.088 7.68926 14.8466 7.31299C14.6045 6.93616 14.1159 6.69733 13.5796 6.69452L9.46825 6.68888L10.7473 1.39298C10.7744 1.30792 10.7879 1.21949 10.7879 1.12824C10.7879 0.518776 10.1747 0.0219677 9.407 0.0022531C9.38991 0.00168982 9.37353 0.00168982 9.35644 0.00168982V0Z" fill="white"/>
</svg>
