<svg width="30" height="20" viewBox="0 0 30 20" fill="none" xmlns="http://www.w3.org/2000/svg">
<path d="M29.8829 13.2422L29.879 13.2225L29.8745 13.2024L28.3213 6.41391L28.3151 6.38879L28.3089 6.36362C27.3322 2.61667 24.0143 0 20.2398 0H9.76047C5.98597 0 2.66798 2.61667 1.69139 6.36362L1.68471 6.38879L1.67891 6.41391L0.125767 13.2023L0.121314 13.222L0.117329 13.2416C-0.453902 16.0378 1.10909 18.8121 3.75226 19.6957L3.84519 19.7263C4.38659 19.9077 4.95202 20 5.52238 20C7.43652 20 9.22129 18.9519 10.1957 17.2605L11.5173 15.2524L11.5502 15.2021L11.58 15.1496C11.6267 15.066 11.7134 15.0139 11.8063 15.0139H18.1942C18.2871 15.0139 18.3738 15.066 18.4205 15.1496L18.4502 15.2021L18.4832 15.2524L19.8047 17.2605C20.7792 18.9519 22.5639 20 24.4785 20C25.0489 20 25.6143 19.9077 26.1584 19.7254L26.2482 19.6957C28.8908 18.8126 30.4534 16.0379 29.8829 13.2422ZM25.7413 18.0939L25.6511 18.1241C25.2639 18.2538 24.8687 18.316 24.4784 18.316C23.1514 18.316 21.8836 17.5963 21.1919 16.3627L19.8405 14.309C19.5014 13.7036 18.8733 13.3299 18.194 13.3299H11.8061C11.1269 13.3299 10.4988 13.7036 10.1596 14.309L8.8082 16.3627C8.11656 17.5963 6.84918 18.316 5.5222 18.316C5.13191 18.316 4.73675 18.2538 4.34956 18.1241L4.25886 18.0939C2.4172 17.4785 1.32319 15.5353 1.7211 13.588L3.27431 6.79946C4.06064 3.78212 6.72115 1.68404 9.76041 1.68404H20.2397C23.2789 1.68404 25.9395 3.78212 26.7258 6.79946L28.2791 13.588C28.6765 15.5353 27.583 17.4785 25.7413 18.0939Z" fill="white"/>
<path d="M9.22571 4.94487H7.26041V7.26457H5.00308V9.28364H7.26041V11.6042H9.22571V9.28364H11.483V7.26457H9.22571V4.94487Z" fill="white"/>
<path d="M21.429 7.00368C22.1127 7.00368 22.6661 6.43487 22.6661 5.73308C22.6661 5.03033 22.1127 4.46151 21.429 4.46151C20.7462 4.46151 20.1928 5.03033 20.1928 5.73308C20.1928 6.43487 20.7462 7.00368 21.429 7.00368Z" fill="white"/>
<path d="M18.9556 7.00368C18.2728 7.00368 17.7189 7.57297 17.7189 8.27428C17.7189 8.97703 18.2728 9.54633 18.9556 9.54633C19.6389 9.54633 20.1923 8.97703 20.1923 8.27428C20.1923 7.57297 19.6389 7.00368 18.9556 7.00368Z" fill="white"/>
<path d="M21.429 9.54585C20.7462 9.54585 20.1928 10.1147 20.1928 10.8174C20.1928 11.5192 20.7462 12.088 21.429 12.088C22.1127 12.088 22.6661 11.5192 22.6661 10.8174C22.6661 10.1147 22.1126 9.54585 21.429 9.54585Z" fill="white"/>
<path d="M23.9023 7.00368C23.2195 7.00368 22.666 7.57297 22.666 8.27428C22.666 8.97703 23.2195 9.54633 23.9023 9.54633C24.5855 9.54633 25.1393 8.97703 25.1393 8.27428C25.1393 7.57297 24.5855 7.00368 23.9023 7.00368Z" fill="white"/>
</svg>
